<?xml version="1.0" encoding="utf-8"?>
<!-- Generator: Adobe Illustrator 23.0.3, SVG Export Plug-In . SVG Version: 6.00 Build 0)  -->
<svg version="1.1" id="图层_1" xmlns="http://www.w3.org/2000/svg" xmlns:xlink="http://www.w3.org/1999/xlink" x="0px" y="0px"
	 viewBox="0 0 40 40" style="enable-background:new 0 0 40 40;" xml:space="preserve">
<g>
	<path d="M24.7,17.9c-1.3,0-2.4-1.1-2.5-2.4V2.5c0-1.4,1.1-2.5,2.4-2.5h12.8C38.9,0,40,1.1,40,2.5v12.9c0,1.4-1.1,2.5-2.4,2.5H24.7z
		 M24,1.9L24,16l-0.1,0.3l0.3-0.2h14l0.3,0.1L38.3,16l0-14.1l0.1-0.3l-0.3,0.2l-14,0l-0.3-0.1L24,1.9z"/>
	<path d="M2.5,17.9c-1.3,0-2.4-1.1-2.5-2.4V2.5C0,1.1,1.1,0,2.4,0h12.8c1.4,0,2.5,1.1,2.5,2.5v12.9c0,0.7-0.2,1.3-0.7,1.7
		c-0.5,0.5-1.1,0.7-1.7,0.7L2.5,17.9z"/>
	<polygon points="1.7,1.9 1.7,16 1.6,16.3 1.9,16.1 15.9,16.1 16.2,16.3 16,16 16,1.9 16.2,1.6 15.8,1.7 1.8,1.7 1.6,1.6 	"/>
	<path d="M2.5,40C1.1,40,0,38.9,0,37.6l0-12.9c0-1.4,1.1-2.5,2.4-2.5h12.8c1.4,0,2.5,1.1,2.5,2.5v12.9c0,1.4-1.1,2.5-2.4,2.5H2.5z"
		/>
	<polygon points="1.7,38.2 1.6,38.4 1.9,38.3 15.9,38.3 16.2,38.4 16,38.1 16,24 16.1,23.7 15.9,23.9 1.8,23.9 1.6,23.7 1.7,24 	"/>
	<path d="M24.7,40c-1.3,0-2.4-1.1-2.5-2.4V24.6c0-1.4,1.1-2.5,2.4-2.5h12.8c1.4,0,2.5,1.1,2.5,2.5v12.9c0,0.7-0.2,1.3-0.7,1.7
		c-0.5,0.5-1.1,0.7-1.7,0.7L24.7,40z"/>
	<polygon points="24,24 24,38.2 23.9,38.4 24.1,38.3 38.2,38.3 38.4,38.4 38.3,38.1 38.3,24 38.4,23.7 38.1,23.9 24.1,23.9 
		23.8,23.7 	"/>
</g>
</svg>
