<?xml version="1.0" encoding="utf-8"?>
<!-- Generator: Adobe Illustrator 23.0.3, SVG Export Plug-In . SVG Version: 6.00 Build 0)  -->
<svg version="1.1" id="图层_1" xmlns="http://www.w3.org/2000/svg" xmlns:xlink="http://www.w3.org/1999/xlink" x="0px" y="0px"
	 viewBox="0 0 40 40" style="enable-background:new 0 0 40 40;" xml:space="preserve">
<path d="M24.7,17.9c-1.3,0-2.4-1.1-2.5-2.4V2.5c0-1.4,1.1-2.5,2.4-2.5h12.8C38.9,0,40,1.1,40,2.5v12.9c0,1.4-1.1,2.5-2.4,2.5H24.7z
	 M24,1.9L24,16l-0.1,0.3l0.3-0.2h14l0.3,0.1L38.3,16l0-14.1l0.1-0.3l-0.3,0.2l-14,0l-0.3-0.1L24,1.9z"/>
<path d="M2.5,17.9c-1.3,0-2.4-1.1-2.5-2.4V2.5C0,1.1,1.1,0,2.4,0h12.8c1.4,0,2.5,1.1,2.5,2.5v12.9c0,0.7-0.2,1.3-0.7,1.7
	c-0.5,0.5-1.1,0.7-1.7,0.7L2.5,17.9z M1.7,1.9l0,14.1l-0.1,0.3l0.3-0.2h14l0.3,0.1L16,16l0-14.1l0.2-0.3l-0.3,0.2l-14,0L1.6,1.6
	L1.7,1.9z"/>
<path d="M2.5,40C1.1,40,0,38.9,0,37.6l0-12.9c0-1.4,1.1-2.5,2.4-2.5h12.8c1.4,0,2.5,1.1,2.5,2.5v12.9c0,1.4-1.1,2.5-2.4,2.5H2.5z
	 M1.7,38.2l-0.1,0.3l0.3-0.2l14,0l0.3,0.1L16,38.1L16,24l0.1-0.3l-0.3,0.2l-14,0l-0.3-0.1L1.7,24V38.2z"/>
<path d="M24.7,40c-1.3,0-2.4-1.1-2.5-2.4V24.6c0-1.4,1.1-2.5,2.4-2.5h12.8c1.4,0,2.5,1.1,2.5,2.5v12.9c0,0.7-0.2,1.3-0.7,1.7
	c-0.5,0.5-1.1,0.7-1.7,0.7L24.7,40z M24,24l0,14.1l-0.1,0.3l0.3-0.2h14l0.3,0.1l-0.2-0.3l0-14.1l0.1-0.3l-0.3,0.2l-14,0l-0.3-0.1
	L24,24z"/>
</svg>
