<?xml version="1.0" encoding="utf-8"?>
<!-- Generator: Adobe Illustrator 23.0.3, SVG Export Plug-In . SVG Version: 6.00 Build 0)  -->
<svg version="1.1" id="图层_1" xmlns="http://www.w3.org/2000/svg" xmlns:xlink="http://www.w3.org/1999/xlink" x="0px" y="0px"
	 viewBox="0 0 40 40" style="enable-background:new 0 0 40 40;" xml:space="preserve">
<path d="M6.6,40c-2.3,0-4.1-1.9-4.1-4.2c0-1.8,0.4-3.6,1.2-5.3c0.8-1.6,1.8-3.1,3.1-4.3c2.7-2.5,6.3-4,9.9-4H23c3.6,0,7.2,1.5,9.9,4
	c1.3,1.3,2.4,2.7,3.1,4.3c0.8,1.7,1.2,3.5,1.2,5.3c0,2.3-1.9,4.2-4.1,4.2H6.6z M16.7,24.2c-3.1,0-6.1,1.2-8.5,3.4
	c-2.4,2.2-3.7,5.1-3.7,8.2c0,1.2,0.9,2.1,2.1,2.1h26.4c1.2,0,2.1-1,2.1-2.1c0-3.1-1.3-6-3.7-8.2c-2.3-2.2-5.4-3.4-8.5-3.4H16.7z
	 M19.9,21c-5.7,0-10.4-4.7-10.4-10.5C9.5,4.7,14.1,0,19.9,0s10.4,4.7,10.4,10.5C30.2,16.3,25.6,21,19.9,21z M19.9,2.1
	c-4.6,0-8.3,3.8-8.3,8.5s3.7,8.5,8.3,8.5s8.3-3.8,8.3-8.5S24.5,2.1,19.9,2.1z"/>
</svg>
