<?xml version="1.0" encoding="utf-8"?>
<!-- Generator: Adobe Illustrator 23.0.3, SVG Export Plug-In . SVG Version: 6.00 Build 0)  -->
<svg version="1.1" id="图层_1" xmlns="http://www.w3.org/2000/svg" xmlns:xlink="http://www.w3.org/1999/xlink" x="0px" y="0px"
	 viewBox="0 0 40 40" style="enable-background:new 0 0 40 40;" xml:space="preserve">
<g>
	<path d="M19.4,40c-1.4,0-2.9-0.2-4.3-0.5c-3-0.7-5.8-2.1-8.1-4.1C3.7,32.7,1.5,29.2,0.5,25C0.2,23.6,0,22.1,0,20.6
		c0.1-4.5,1.4-8.6,4.1-12c2.4-3,5.4-5.1,9.1-6.3c1.7-0.5,3.5-0.8,5.3-0.8c0.8,0,1.3,0.6,1.4,1.4c0,1.1,0,2.2,0,3.3l0,12.3
		c0,0.7,0.4,1.3,1,1.5c0.2,0.1,0.4,0.1,0.6,0.1c5.2,0,10.4,0,15.5,0c0.6,0,1.1,0.2,1.3,0.8c0.1,0.2,0.1,0.4,0.1,0.6
		c-0.1,3.9-1.2,7.4-3.4,10.5c-2,2.8-4.6,5-7.9,6.4c-1.7,0.7-3.4,1.2-5.3,1.5C21.1,39.9,20.3,40,19.4,40z"/>
	<path d="M17.6,3.5c-1.1,0.1-2.3,0.4-3.4,0.7c-1.8,0.5-3.4,1.3-4.8,2.3C8.6,7,7.8,7.6,7,8.4c-1,1-1.8,2.2-2.7,3.8
		c-1.1,2.1-1.9,4.3-2.2,6.6l0,0.1c-0.1,0.6-0.2,1.2-0.2,1.8c0.2,3.5,1.4,6.9,3.4,9.8c0.5,0.7,1.1,1.6,1.9,2.4c0.9,0.9,2,1.7,3.5,2.6
		c2.2,1.3,4.5,2.1,7,2.5l0.2,0c0.5,0.1,0.9,0.1,1.4,0.1c0.1,0,0.2,0,0.3,0c0.9-0.1,1.9-0.2,2.8-0.4c2.5-0.5,4.8-1.4,6.9-2.8
		c1-0.7,2.4-1.6,3.4-3c1.9-2.5,3.2-5.2,3.7-8.2c0.1-0.3,0.1-0.6,0.2-0.9l0.1-0.8l-0.5,0c-0.1,0-0.2,0-0.3,0l-15.5,0
		c-0.4,0-0.6-0.1-0.9-0.4c-0.4-0.4-0.7-0.7-1-1c-0.3-0.2-0.4-0.5-0.4-0.9c0-5.1,0-10.3,0-15.4l0-0.7L17.6,3.5L17.6,3.5z"/>
	<path d="M39.9,14.2c-0.3-2.3-1.1-4.6-2.4-6.6c-1.7-2.7-4-4.8-6.9-6.1c-2.1-1-4.5-1.5-6.8-1.5c-0.7,0-1.2,0.5-1.2,1.2
		c0,0,0,12.5,0,15c0,0.1,0,0.3,0,0.4c0.1,0.5,0.6,0.8,1.2,0.8l14.9,0c0.1,0,0.2,0,0.2,0c0.6-0.1,1-0.5,1-1.1
		C40,15.7,40,14.9,39.9,14.2z M25,15.6c-0.5,0-0.6-0.2-0.6-0.6V1.9l1.1,0.2c0.5,0.1,1,0.2,1.6,0.4c2.2,0.6,4.2,1.7,6.1,3.1
		c0.9,0.7,1.6,1.6,2.2,2.5c1.4,2.1,2.3,4.5,2.7,7c0,0,0,0.1,0,0.2l0,0.3L25,15.6z"/>
</g>
</svg>
