<?xml version="1.0" encoding="utf-8"?>
<!-- Generator: Adobe Illustrator 23.0.3, SVG Export Plug-In . SVG Version: 6.00 Build 0)  -->
<svg version="1.1" id="图层_1" xmlns="http://www.w3.org/2000/svg" xmlns:xlink="http://www.w3.org/1999/xlink" x="0px" y="0px"
	 viewBox="0 0 40 40" style="enable-background:new 0 0 40 40;" xml:space="preserve">
<path d="M34.9,1.7H5.1C2.3,1.7,0,4.1,0,7v19.2c0,2.9,2.3,5.3,5.1,5.3l8.3,0.1l6.5,6.8l6.7-6.8h8.2c2.8,0,5.1-2.4,5.1-5.3V7
	C40,4.1,37.7,1.7,34.9,1.7z M11.3,19.4c-1.3,0-2.4-1.2-2.4-2.6c0-0.9,0.5-1.8,1.2-2.2c0.4-0.2,0.8-0.3,1.2-0.3
	c0.4,0,0.8,0.1,1.2,0.3c0.8,0.5,1.2,1.3,1.2,2.2C13.7,18.3,12.6,19.4,11.3,19.4z M20,19.4c-1.3,0-2.4-1.2-2.4-2.6s1.1-2.6,2.4-2.6
	c1.3,0,2.4,1.2,2.4,2.6S21.3,19.4,20,19.4z M28.7,19.4c-1.3,0-2.4-1.2-2.4-2.6s1.1-2.6,2.4-2.6c1.3,0,2.4,1.2,2.4,2.6
	S30,19.4,28.7,19.4z"/>
</svg>
