<?xml version="1.0" encoding="utf-8"?>
<!-- Generator: Adobe Illustrator 23.0.3, SVG Export Plug-In . SVG Version: 6.00 Build 0)  -->
<svg version="1.1" id="图层_1" xmlns="http://www.w3.org/2000/svg" xmlns:xlink="http://www.w3.org/1999/xlink" x="0px" y="0px"
	 viewBox="0 0 40 40" style="enable-background:new 0 0 40 40;" xml:space="preserve">
<g>
	<path d="M1.9,38.7c-0.5,0-1-0.4-1-1c0-0.5,0.4-1,1-1h5l0,0.1L6.9,24.4c0-3.5,1.4-6.8,3.9-9.3c2.5-2.5,5.8-3.9,9.3-3.9h0.1
		c3.5,0,6.8,1.4,9.3,3.9c2.5,2.5,3.9,5.8,3.9,9.3v12.4l5-0.1c0.5,0,1,0.4,1,1c0,0.5-0.4,1-1,1H1.9z M20.1,13.2
		c-6.2,0-11.3,5-11.3,11.3v12.4l22.7-0.1l-0.1-12.3c0-6.2-5-11.3-11.3-11.3H20.1z"/>
	<path d="M35.5,16.5c-0.3-0.6-0.6-1.1-0.9-1.6l4.1-2.4c0.1-0.1,0.3-0.1,0.5-0.1c0.3,0,0.7,0.2,0.8,0.5c0.1,0.2,0.2,0.5,0.1,0.7
		c-0.1,0.3-0.2,0.5-0.5,0.6L35.5,16.5L35.5,16.5z M0.6,14.1c-0.5-0.3-0.6-0.9-0.4-1.3c0.2-0.3,0.5-0.5,0.8-0.5c0.2,0,0.3,0,0.5,0.1
		l4,2.3c-0.3,0.6-0.6,1.1-0.9,1.7l0,0.1L0.6,14.1z M8.3,5.7C8.2,5.5,8.2,5.2,8.2,5c0.1-0.3,0.2-0.5,0.5-0.6C8.8,4.3,9,4.3,9.2,4.3
		c0.3,0,0.7,0.2,0.8,0.5l2.4,4.2c-0.6,0.3-1.1,0.6-1.7,0.9l0,0L8.3,5.7z M29.5,9.8C29,9.5,28.5,9.2,27.9,9l2.4-4.2
		c0.2-0.3,0.5-0.5,0.8-0.5c0.2,0,0.3,0,0.5,0.1c0.5,0.3,0.6,0.9,0.4,1.3L29.5,9.8L29.5,9.8z M19.2,7.6l-0.1-5.3c0-0.5,0.4-1,1-1
		c0.5,0,1,0.4,1,1v5.3H19.2z"/>
	<polygon points="19.1,33.5 20.1,27.2 16,27.2 21.1,18.7 20.2,25.1 24.3,25 19.2,33.5 	"/>
</g>
</svg>
